<?xml version="1.0" encoding="UTF-8" standalone="no"?>
<svg
   width="59"
   height="59"
   version="1.1"
   id="svg1"
   sodipodi:docname="logo.svg"
   inkscape:version="1.3 (0e150ed6c4, 2023-07-21)"
   xmlns:inkscape="http://www.inkscape.org/namespaces/inkscape"
   xmlns:sodipodi="http://sodipodi.sourceforge.net/DTD/sodipodi-0.dtd"
   xmlns="http://www.w3.org/2000/svg"
   xmlns:svg="http://www.w3.org/2000/svg">
  <defs
     id="defs1" />
  <sodipodi:namedview
     id="namedview1"
     pagecolor="#505050"
     bordercolor="#eeeeee"
     borderopacity="1"
     inkscape:showpageshadow="0"
     inkscape:pageopacity="0"
     inkscape:pagecheckerboard="0"
     inkscape:deskcolor="#505050"
     inkscape:zoom="6.6138614"
     inkscape:cx="33.868263"
     inkscape:cy="38.782186"
     inkscape:window-width="1920"
     inkscape:window-height="1011"
     inkscape:window-x="0"
     inkscape:window-y="32"
     inkscape:window-maximized="1"
     inkscape:current-layer="svg1" />
  <g
     id="g1">
    <g
       stroke="null"
       id="svg_1">
      <g
         stroke="null"
         id="svg_2">
        <path
           stroke="null"
           id="svg_3"
           d="m 29.535435,19.329125 c -5.644142,0 -10.205806,4.561664 -10.205806,10.206563 0,5.644142 4.561411,10.205553 10.205806,10.205553 5.644395,0 10.206058,-4.561159 10.206058,-10.205553 -2.52e-4,-5.644899 -4.561916,-10.206563 -10.206058,-10.206563 m 0,23.194298 c -7.19061,0 -12.989502,-5.798135 -12.989502,-12.987988 0,-7.190358 5.798892,-12.98925 12.989502,-12.98925 7.113113,0 12.988745,5.798892 12.988745,12.98925 0,7.190105 -5.875884,12.987988 -12.988745,12.987988 z"
           fill="#d2e6ef" />
        <path
           stroke="null"
           id="svg_4"
           d="m 39.27699,56.596161 c 0,1.003971 -0.849978,1.854959 -1.855464,1.854959 -1.082478,0 -1.933214,-0.850988 -1.933214,-1.854959 0,-1.083236 0.850736,-1.932709 1.933214,-1.932709 1.005234,-2.52e-4 1.855464,0.849221 1.855464,1.932709 M 29.535436,15.076457 c -7.963596,0 -14.380976,6.494625 -14.380976,14.458979 0,7.963344 6.41738,14.457716 14.380976,14.457716 7.963091,0 14.380715,-6.494373 14.380715,-14.457716 C 43.915899,21.57083 37.498527,15.076457 29.535436,15.076457 Z M 46.467601,6.26263 c 0,1.081973 -0.850231,1.932709 -1.855708,1.932709 -1.004729,0 -1.855717,-0.850736 -1.855717,-1.932709 0,-1.004981 0.850736,-1.855212 1.855717,-1.855212 1.005477,0 1.855708,0.849978 1.855708,1.855212 z m 10.360556,11.907024 c 0,1.005486 -0.850988,1.855464 -1.933214,1.855464 -1.004729,0 -1.855717,-0.849726 -1.855717,-1.855464 0,-1.005738 0.850736,-1.855717 1.855717,-1.855717 1.082226,0 1.933214,0.849726 1.933214,1.855717 z m 2.24221,15.540699 c 0,1.081973 -0.850492,1.932709 -1.932717,1.932709 -1.005477,0 -1.855708,-0.850736 -1.855708,-1.932709 0,-1.004981 0.849978,-1.855717 1.855708,-1.855717 1.082234,2.52e-4 1.932717,0.850736 1.932717,1.855717 z m -6.572131,14.380472 c 0,1.005225 -0.850483,1.85596 -1.855464,1.85596 -1.082731,0 -1.855708,-0.850483 -1.855708,-1.85596 0,-1.082739 0.772977,-1.933475 1.855708,-1.933475 1.004729,0 1.855464,0.850736 1.855464,1.933475 z m -28.993939,8.505336 c 0,1.003971 -0.773238,1.854959 -1.855464,1.854959 -1.004729,0 -1.855717,-0.850988 -1.855717,-1.854959 0,-1.083236 0.850736,-1.932709 1.855717,-1.932709 1.082478,-2.52e-4 1.855464,0.849221 1.855464,1.932709 z m -13.22074,-8.505336 c 0,1.005225 -0.850736,1.85596 -1.855717,1.85596 -1.004981,0 -1.855969,-0.850483 -1.855969,-1.85596 0,-1.082739 0.850736,-1.933475 1.855969,-1.933475 1.004981,0 1.855717,0.850736 1.855717,1.933475 z M 3.78868,33.710353 c 0,1.081973 -0.850231,1.932709 -1.932961,1.932709 -1.004981,0 -1.855717,-0.850736 -1.855717,-1.932709 0,-1.004981 0.850483,-1.855717 1.855717,-1.855717 1.082731,2.52e-4 1.932961,0.850736 1.932961,1.855717 z M 6.03089,18.169654 c 0,1.005486 -0.850483,1.855464 -1.932961,1.855464 -1.004981,0 -1.855464,-0.849726 -1.855464,-1.855464 0,-1.005738 0.850231,-1.855717 1.855464,-1.855717 1.082478,0 1.932961,0.849726 1.932961,1.855717 z M 16.31394,6.26263 c 0,1.081973 -0.850483,1.932709 -1.855717,1.932709 -1.082226,0 -1.932456,-0.850736 -1.932456,-1.932709 0,-1.004981 0.850231,-1.855212 1.932456,-1.855212 1.004981,0 1.855717,0.849978 1.855717,1.855212 z M 31.390902,1.855717 c 0,1.005234 -0.850736,1.856222 -1.855717,1.856222 -1.005234,0 -1.855969,-0.850736 -1.855969,-1.856222 C 27.679216,0.850988 28.529699,0 29.535185,0 c 1.004981,0 1.855717,0.850736 1.855717,1.855717 z M 8.582339,16.005203 c -1.236976,1.85495 -2.164704,3.86567 -2.860698,6.030374 l 4.639161,3.634189 -0.07724,0.23149 c -0.0775,0.385988 -0.0775,0.772977 -0.155003,1.236976 v 0.154489 l -5.566636,2.319454 c 0,2.164965 0.30924,4.329921 0.92798,6.416875 l 5.798892,0.618741 0.07699,0.231995 c 0.232248,0.386745 0.386745,0.850231 0.618993,1.237481 l 0.07725,0.231995 -3.402194,4.792396 c 1.159731,1.856474 2.628955,3.480439 4.175171,4.948914 l 5.257396,-2.628955 0.231995,0.078 c 0.386493,0.309248 0.772986,0.541496 1.159731,0.772733 l 0.232248,0.155255 -0.232248,5.875632 c 2.010215,0.849978 4.097917,1.469224 6.185377,1.855464 L 28.6847,49.096048 h 0.23149 c 0.464748,0 0.928233,0 1.391979,0 h 0.232248 l 3.015187,5.025654 c 2.164956,-0.30924 4.25292,-0.928485 6.18589,-1.85596 l -0.232256,-5.953643 0.232256,-0.07674 c 0.385979,-0.233005 0.695985,-0.464243 1.082226,-0.695985 l 0.154742,-0.15475 5.257405,2.628946 c 1.623208,-1.469224 3.092431,-3.170442 4.25191,-5.026159 l -3.401932,-4.870146 0.0775,-0.155247 c 0.154498,-0.385988 0.309753,-0.695489 0.463485,-1.082234 l 0.07776,-0.231995 5.875884,-0.541487 c 0.618741,-2.164207 0.850736,-4.329164 0.850736,-6.571121 0,0 0,0 0,-0.078 l -5.489653,-2.241957 v -0.2325 c -0.07674,-0.30924 -0.07674,-0.618236 -0.154237,-0.927223 l -0.07751,-0.232248 4.639161,-3.711181 c -0.695733,-2.164704 -1.624218,-4.174413 -2.861194,-6.030635 l -5.79864,1.081721 -0.15475,-0.231238 c -0.23149,-0.15475 -0.385979,-0.38624 -0.618236,-0.618488 l -0.154742,-0.15475 1.932961,-5.643881 C 43.993403,9.045828 42.060442,7.808599 39.972982,6.881115 l -4.329416,4.097169 -0.155003,-0.07751 c -0.308735,-0.07725 -0.541235,-0.153984 -0.850231,-0.232248 l -0.231995,-0.07649 -1.391474,-5.722144 c -1.159975,-0.23149 -2.319454,-0.308996 -3.479177,-0.308996 -1.082731,0 -2.164704,0.077506 -3.247443,0.232248 l -1.468971,5.721143 -0.232248,0.07775 c -0.30924,0.07649 -0.541235,0.154498 -0.849978,0.23149 l -0.232248,0.07724 -4.330174,-4.097412 c -2.010206,0.928233 -3.943167,2.165209 -5.643628,3.63418 l 1.855708,5.567402 -0.154994,0.153993 c -0.231995,0.231995 -0.463746,0.541487 -0.695489,0.77323 l -0.07775,0.15475 -5.876137,-1.081721 z"
           fill="#80cbea"
           clip-rule="evenodd"
           fill-rule="evenodd" />
      </g>
    </g>
  </g>
</svg>
