<svg width="202" height="58" xmlns="http://www.w3.org/2000/svg">
 <g>
  <g stroke="null" id="svg_1">
   <g stroke="null" id="svg_2">
    <path stroke="null" id="svg_3" d="m29.535435,19.329125c-5.644142,0 -10.205806,4.561664 -10.205806,10.206563c0,5.644142 4.561411,10.205553 10.205806,10.205553s10.206058,-4.561159 10.206058,-10.205553c-0.000252,-5.644899 -4.561916,-10.206563 -10.206058,-10.206563m0,23.194298c-7.19061,0 -12.989502,-5.798135 -12.989502,-12.987988c0,-7.190358 5.798892,-12.98925 12.989502,-12.98925c7.113113,0 12.988745,5.798892 12.988745,12.98925c0,7.190105 -5.875884,12.987988 -12.988745,12.987988z" fill="#D2E6EF"></path>
    <path stroke="null" id="svg_4" d="m39.27699,56.596161c0,1.003971 -0.849978,1.854959 -1.855464,1.854959c-1.082478,0 -1.933214,-0.850988 -1.933214,-1.854959c0,-1.083236 0.850736,-1.932709 1.933214,-1.932709c1.005234,-0.000252 1.855464,0.849221 1.855464,1.932709m-9.741554,-41.519704c-7.963596,0 -14.380976,6.494625 -14.380976,14.458979c0,7.963344 6.41738,14.457716 14.380976,14.457716c7.963091,0 14.380715,-6.494373 14.380715,-14.457716c-0.000252,-7.964606 -6.417624,-14.458979 -14.380715,-14.458979zm16.932165,-8.813827c0,1.081973 -0.850231,1.932709 -1.855708,1.932709c-1.004729,0 -1.855717,-0.850736 -1.855717,-1.932709c0,-1.004981 0.850736,-1.855212 1.855717,-1.855212c1.005477,0 1.855708,0.849978 1.855708,1.855212zm10.360556,11.907024c0,1.005486 -0.850988,1.855464 -1.933214,1.855464c-1.004729,0 -1.855717,-0.849726 -1.855717,-1.855464c0,-1.005738 0.850736,-1.855717 1.855717,-1.855717c1.082226,0 1.933214,0.849726 1.933214,1.855717zm2.24221,15.540699c0,1.081973 -0.850492,1.932709 -1.932717,1.932709c-1.005477,0 -1.855708,-0.850736 -1.855708,-1.932709c0,-1.004981 0.849978,-1.855717 1.855708,-1.855717c1.082234,0.000252 1.932717,0.850736 1.932717,1.855717zm-6.572131,14.380472c0,1.005225 -0.850483,1.85596 -1.855464,1.85596c-1.082731,0 -1.855708,-0.850483 -1.855708,-1.85596c0,-1.082739 0.772977,-1.933475 1.855708,-1.933475c1.004729,0 1.855464,0.850736 1.855464,1.933475zm-28.993939,8.505336c0,1.003971 -0.773238,1.854959 -1.855464,1.854959c-1.004729,0 -1.855717,-0.850988 -1.855717,-1.854959c0,-1.083236 0.850736,-1.932709 1.855717,-1.932709c1.082478,-0.000252 1.855464,0.849221 1.855464,1.932709zm-13.22074,-8.505336c0,1.005225 -0.850736,1.85596 -1.855717,1.85596c-1.004981,0 -1.855969,-0.850483 -1.855969,-1.85596c0,-1.082739 0.850736,-1.933475 1.855969,-1.933475c1.004981,0 1.855717,0.850736 1.855717,1.933475zm-6.494877,-14.380472c0,1.081973 -0.850231,1.932709 -1.932961,1.932709c-1.004981,0 -1.855717,-0.850736 -1.855717,-1.932709c0,-1.004981 0.850483,-1.855717 1.855717,-1.855717c1.082731,0.000252 1.932961,0.850736 1.932961,1.855717zm2.24221,-15.540699c0,1.005486 -0.850483,1.855464 -1.932961,1.855464c-1.004981,0 -1.855464,-0.849726 -1.855464,-1.855464c0,-1.005738 0.850231,-1.855717 1.855464,-1.855717c1.082478,0 1.932961,0.849726 1.932961,1.855717zm10.28305,-11.907024c0,1.081973 -0.850483,1.932709 -1.855717,1.932709c-1.082226,0 -1.932456,-0.850736 -1.932456,-1.932709c0,-1.004981 0.850231,-1.855212 1.932456,-1.855212c1.004981,0 1.855717,0.849978 1.855717,1.855212zm15.076962,-4.406913c0,1.005234 -0.850736,1.856222 -1.855717,1.856222c-1.005234,0 -1.855969,-0.850736 -1.855969,-1.856222c0,-1.004729 0.850483,-1.855717 1.855969,-1.855717c1.004981,0 1.855717,0.850736 1.855717,1.855717zm-22.808563,14.149486c-1.236976,1.85495 -2.164704,3.86567 -2.860698,6.030374l4.639161,3.634189l-0.077245,0.23149c-0.077497,0.385988 -0.077497,0.772977 -0.155003,1.236976l0,0.154489l-5.566636,2.319454c0,2.164965 0.30924,4.329921 0.92798,6.416875l5.798892,0.618741l0.076992,0.231995c0.232248,0.386745 0.386745,0.850231 0.618993,1.237481l0.077253,0.231995l-3.402194,4.792396c1.159731,1.856474 2.628955,3.480439 4.175171,4.948914l5.257396,-2.628955l0.231995,0.078002c0.386493,0.309248 0.772986,0.541496 1.159731,0.772733l0.232248,0.155255l-0.232248,5.875632c2.010215,0.849978 4.097917,1.469224 6.185377,1.855464l3.015196,-5.102655l0.23149,0c0.464748,0 0.928233,0 1.391979,0l0.232248,0l3.015187,5.025654c2.164956,-0.30924 4.25292,-0.928485 6.18589,-1.85596l-0.232256,-5.953643l0.232256,-0.07674c0.385979,-0.233005 0.695985,-0.464243 1.082226,-0.695985l0.154742,-0.15475l5.257405,2.628946c1.623208,-1.469224 3.092431,-3.170442 4.25191,-5.026159l-3.401932,-4.870146l0.077497,-0.155247c0.154498,-0.385988 0.309753,-0.695489 0.463485,-1.082234l0.077758,-0.231995l5.875884,-0.541487c0.618741,-2.164207 0.850736,-4.329164 0.850736,-6.571121c0,0 0,0 0,-0.078002l-5.489653,-2.241957l0,-0.2325c-0.07674,-0.30924 -0.07674,-0.618236 -0.154237,-0.927223l-0.077506,-0.232248l4.639161,-3.711181c-0.695733,-2.164704 -1.624218,-4.174413 -2.861194,-6.030635l-5.79864,1.081721l-0.15475,-0.231238c-0.23149,-0.15475 -0.385979,-0.38624 -0.618236,-0.618488l-0.154742,-0.15475l1.932961,-5.643881c-1.700966,-1.468971 -3.633927,-2.7062 -5.721387,-3.633684l-4.329416,4.097169l-0.155003,-0.077506c-0.308735,-0.077245 -0.541235,-0.153984 -0.850231,-0.232248l-0.231995,-0.076487l-1.391474,-5.722144c-1.159975,-0.23149 -2.319454,-0.308996 -3.479177,-0.308996c-1.082731,0 -2.164704,0.077506 -3.247443,0.232248l-1.468971,5.721143l-0.232248,0.07775c-0.30924,0.076487 -0.541235,0.154498 -0.849978,0.23149l-0.232248,0.077245l-4.330174,-4.097412c-2.010206,0.928233 -3.943167,2.165209 -5.643628,3.63418l1.855708,5.567402l-0.154994,0.153993c-0.231995,0.231995 -0.463746,0.541487 -0.695489,0.77323l-0.07775,0.15475l-5.876137,-1.081721z" fill="#80CBEA" clip-rule="evenodd" fill-rule="evenodd"></path>
   </g>
   <polygon stroke="null" id="svg_5" points="98.51498235908457,18.207518345348717 89.74860932395677,0 81.24352698978328,18.207518345348717 84.2827000360694,18.207518345348717 89.78622910492959,6.424951134778496 91.8055232742663,10.617790867047233 89.77638434743221,10.617790867047233 88.44903096434246,13.37044118335723 93.13059667063044,13.37044118335723 95.4599057016876,18.207518345348717 " fill="#929292"></polygon>
   <g stroke="null" id="svg_6">
    <polygon stroke="null" id="svg_7" points="167.0103224593331,18.23856909049323 168.33768287941894,15.485668081198355 159.48877291742428,15.485668081198355 169.57062088628118,0.06689742301463752 154.43307124125567,0.06689742301463752 155.991906609961,2.8197982124033842 164.4813527388742,2.8197982124033842 154.40050402345878,18.23856909049323 " fill="#929292"></polygon>
    <polygon stroke="null" id="svg_8" points="168.5383780072425,18.23856909049323 168.9460593373733,18.23856909049323 168.9460593373733,17.393893823115604 " fill="#929292"></polygon>
   </g>
   <polygon stroke="null" id="svg_9" points="185.20346246246845,22.200927410024633 183.23867686466474,19.283186527115276 180.74933950605373,19.283186527115276 182.71512435729892,22.200927410024633 " fill="#929292"></polygon>
   <path stroke="null" id="svg_10" d="m136.885698,7.421351c-0.043925,-4.691418 -3.845732,-7.279226 -7.530906,-7.414282l-7.538733,-0.006817l1.559598,2.752397l5.66812,0c0.001515,0.000757 0.005302,0.000757 0.005807,0.000757c2.525956,0 5.083465,1.630791 5.083465,4.748724l0,3.214619c0,3.11768 -2.557509,4.748724 -5.083465,4.748724c-1.262721,0 -2.411091,-0.407197 -3.234061,-1.146097c-0.937322,-0.840383 -1.412674,-2.052877 -1.412674,-3.602627l0,-3.214619c0,-1.056985 0.226693,-1.95215 0.664685,-2.684242l-3.008117,0c-0.249922,0.758847 -0.409217,1.646446 -0.409217,2.684242l0,3.214619c0,2.945517 1.265255,4.699497 2.326271,5.651464c1.328865,1.193556 3.130305,1.850414 5.073113,1.850414c3.79903,0 7.836115,-2.62946 7.836115,-7.501878l0,-3.295399l0,0z" fill="#929292"></path>
   <g stroke="null" id="svg_11">
    <polygon stroke="null" id="svg_12" points="200.38896219869275,43.73262945710576 197.63632859524841,43.73262945710576 197.63632859524841,25.530163674932965 200.38896219869275,25.530163674932965 200.38896219869275,43.73262945710576 " fill="#929292"></polygon>
   </g>
   <polygon stroke="null" id="svg_13" points="147.65140553979654,43.72227803589158 150.40432062308355,43.72227803589158 150.40432062308355,30.198856956165855 158.4956557365167,43.72227803589158 162.2681611799144,43.72227803589158 162.2681611799144,25.530163674932965 159.5152601706195,25.530163674932965 159.5152601706195,40.066389691312 150.8193345031159,25.530163674932965 147.61101318237343,25.530163674932965 147.65140553979654,25.59806716847902 " fill="#929292"></polygon>
   <path stroke="null" id="svg_14" d="m122.3631,43.732625c2.297244,-0.118897 4.216066,-1.106961 5.570937,-2.839993c1.226624,-1.568435 1.902166,-3.686942 1.902166,-5.968026c0,-4.528335 -2.788755,-9.340678 -7.957789,-9.340678l-4.407418,0l0,-0.003535l-2.753154,0l0,18.141637l2.753154,0l0,-15.384948l4.407418,0c3.416821,0 5.204635,3.314083 5.204635,6.587524c0,1.668404 -0.467525,3.185844 -1.316998,4.271352c-0.921929,1.17866 -2.23009,1.776452 -3.887637,1.776452l-2.561044,0.006304l1.56591,2.753659l1.479819,0l0,0.000252z" fill="#929292"></path>
   <path stroke="null" id="svg_15" d="m71.213164,25.58418c-3.053052,0.353425 -4.693438,2.950567 -4.693438,5.36494c0,1.346287 0.487472,2.596131 1.37279,3.51806c0.690944,0.720224 1.95417,1.57702 4.049204,1.57702l3.150748,0c1.833759,0 2.669092,1.354358 2.669092,2.611786c0,0.632619 -0.215331,1.20491 -0.605611,1.611855c-0.45894,0.478373 -1.172852,0.731073 -2.063481,0.731073l-11.284993,0l-1.326845,2.752144l12.611838,0c2.095034,0 3.358016,-0.8573 4.049204,-1.576515c0.885571,-0.922173 1.37279,-2.171773 1.37279,-3.518557c0,-2.599675 -1.900146,-5.36393 -5.422246,-5.36393l-3.150748,0c-0.89062,0 -1.604027,-0.252952 -2.062976,-0.731081c-0.391029,-0.406936 -0.605864,-0.979227 -0.605864,-1.611602c0,-1.256662 0.835342,-2.611786 2.66884,-2.611786l6.605956,0l1.327098,-2.753154l-8.661357,0l0,-0.000252z" fill="#929292"></path>
   <g stroke="null" id="svg_16">
    <polyline stroke="null" id="svg_17" points="96.85364610567103,25.58418493448835 82.16696383563794,25.58418493448835 80.83987082140266,28.33733751639261 86.71423550898817,28.33733751639261 86.71423550898817,43.72227803589158 89.46738985014144,43.72227803589158 89.46738985014144,28.33733751639261 95.67119150859162,28.33733751639261 96.99577231523108,25.591248319290344 " fill="#929292"></polyline>
    <path stroke="null" id="svg_18" d="m109.336238,25.651586l0,10.579422c0,3.117428 -2.557509,4.749229 -5.083465,4.749229c-1.262216,0 -2.411091,-0.407702 -3.234052,-1.146349c-0.937079,-0.840897 -1.412431,-2.052624 -1.412431,-3.60288l0,-10.741747l-0.269607,0l-2.483294,5.151377l0,5.59037c0,2.946013 1.26475,4.699489 2.326524,5.651708c1.32836,1.193809 3.130053,1.849909 5.072861,1.849909c3.79903,0 7.836115,-2.629451 7.836115,-7.501617l0,-10.579422l-2.752649,0z" fill="#929292"></path>
   </g>
   <path stroke="null" id="svg_19" d="m164.511897,34.924858c0,2.325261 0.814638,4.476844 2.292185,6.059663c1.674968,1.793116 4.074697,2.740277 6.941202,2.740277l0,0.007827l4.062325,0l0,-2.752144l-4.062325,0l0,-0.007818c-2.083672,0 -3.788173,-0.647019 -4.928463,-1.867079c-0.999931,-1.070864 -1.550761,-2.555489 -1.550761,-4.180726c0,-3.273441 2.224788,-6.587524 6.479223,-6.587524l4.255445,0l1.32735,-2.753154l-5.582795,0c-5.996305,0 -9.233387,4.813101 -9.233387,9.340678z" fill="#929292"></path>
   <polygon stroke="null" id="svg_20" points="134.91182489645144,35.971748160468906 140.71855701483946,35.971748160468906 140.71855701483946,33.2190969645344 134.91182489645144,33.2190969645344 134.91182489645144,28.33733751639261 144.1399304284987,28.33733751639261 145.46624937316665,25.58418493448835 134.91182489645144,25.58418493448835 134.91182489645144,25.580647084715793 132.15917721901496,25.580647084715793 132.15917721901496,43.72227803589158 132.96927620621864,43.72227803589158 132.96927620621864,43.724800798981505 144.9313391541491,43.724800798981505 144.9313391541491,40.97266330375987 134.91182489645144,40.97266330375987 " fill="#929292"></polygon>
   <path stroke="null" id="svg_21" d="m181.725545,54.02022l-1.035027,0c-0.465,0 -0.845181,-0.140106 -1.098629,-0.405674c-0.221904,-0.230228 -0.344083,-0.548304 -0.344083,-0.897438c0,-0.704065 0.496048,-1.416967 1.442721,-1.416967l2.51106,0l0,-0.574816l-2.51106,0c-1.310442,0 -2.018042,1.027444 -2.018042,1.992035c0,0.497563 0.179486,0.959036 0.503884,1.296799c0.365789,0.379676 0.888853,0.580371 1.514158,0.580371l1.035019,0c0.946664,0 1.442207,0.713912 1.442207,1.418482c0,0.349133 -0.121169,0.66721 -0.34256,0.896933c-0.255477,0.265324 -0.634647,0.405177 -1.099395,0.405177l-2.764516,0l0,0.574816l2.764516,0c0.62581,0 1.148874,-0.200695 1.514158,-0.581381c0.324389,-0.338276 0.502865,-0.798226 0.502865,-1.295798c-0.000252,-0.965845 -0.706842,-1.99254 -2.017276,-1.99254z" fill="#929292"></path>
   <polygon stroke="null" id="svg_22" points="88.93270481499803,50.72431782467493 88.93270481499803,57.86949011345587 89.21949055270215,57.86949011345587 89.21949055270215,57.87908153909484 93.47316467615565,57.87908153909484 93.47316467615565,57.304517847241186 89.50677591712702,57.304517847241186 89.50677591712702,54.687937525751295 91.52984895335157,54.687937525751295 91.52984895335157,54.113116983541204 89.50677591712702,54.113116983541204 89.50677591712702,51.30014465732256 93.47316467615565,51.30014465732256 93.47316467615565,50.725327633610505 " fill="#929292"></polygon>
   <polygon stroke="null" id="svg_23" points="104.90508848840182,50.72431782467493 104.90508848840182,54.113116983541204 101.10227470294467,54.113116983541204 101.10227470294467,50.72431782467493 100.52721138437028,50.72431782467493 100.52721138437028,57.89069961960104 101.10227470294467,57.89069961960104 101.10227470294467,54.687937525751295 104.90508848840182,54.687937525751295 104.90508848840182,57.89069961960104 105.47965218025547,57.89069961960104 105.47965218025547,50.72431782467493 " fill="#929292"></polygon>
   <polygon stroke="null" id="svg_24" points="198.05487504730627,51.30014465732256 198.05487504730627,50.725327633610505 194.0884722142855,50.725327633610505 194.0884722142855,50.72431782467493 193.51339482171898,50.72431782467493 193.51339482171898,57.89069961960104 198.05487504730627,57.89069961960104 198.05487504730627,57.314865749957335 194.0884722142855,57.314865749957335 194.0884722142855,54.687937525751295 196.11180561936453,54.687937525751295 196.11180561936453,54.113116983541204 194.0884722142855,54.113116983541204 194.0884722142855,51.30014465732256 " fill="#929292"></polygon>
   <polygon stroke="null" id="svg_25" points="79.4322323501874,57.86949011345587 79.4322323501874,57.29466605274774 75.74100421136063,57.29466605274774 75.74100421136063,50.72431782467493 75.16593385579017,50.72431782467493 75.16593385579017,57.86949011345587 " fill="#929292"></polygon>
   <g stroke="null" id="svg_26">
    <polygon stroke="null" id="svg_27" points="81.04106557594696,57.86949011345587 80.46573485152203,57.86949011345587 80.46573485152203,50.72431782467493 81.04106557594696,50.72431782467493 81.04106557594696,57.86949011345587 " fill="#929292"></polygon>
   </g>
   <g stroke="null" id="svg_28">
    <polygon stroke="null" id="svg_29" points="114.67365642936329,57.89069961960104 114.0990997745057,57.89069961960104 114.0990997745057,50.72431782467493 114.67365642936329,50.72431782467493 114.67365642936329,57.89069961960104 " fill="#929292"></polygon>
   </g>
   <g stroke="null" id="svg_30">
    <polygon stroke="null" id="svg_31" points="123.32718419556477,57.89069961960104 122.75185347113984,57.89069961960104 122.75185347113984,50.72431782467493 123.32718419556477,50.72431782467493 123.32718419556477,57.89069961960104 " fill="#929292"></polygon>
   </g>
   <polygon stroke="null" id="svg_32" points="87.87447430948487,50.725327633610505 82.55598305219974,50.725327633610505 82.55598305219974,51.30014465732256 84.92743665270064,51.30014465732256 84.92743665270064,57.87908153909484 85.5025070082711,57.87908153909484 85.5025070082711,51.30014465732256 87.87447430948487,51.30014465732256 " fill="#929292"></polygon>
   <path stroke="null" id="svg_33" d="m151.372694,53.570117c-0.031553,-1.853949 -1.518703,-2.856153 -2.920773,-2.856153c-0.728809,0 -1.400311,0.257497 -1.892824,0.721234c-0.538466,0.506905 -0.829788,1.231674 -0.848977,2.097559l-0.004031,0l0,1.509361l0.00101,0c0.005799,0.880521 0.299393,1.618167 0.853008,2.131889c0.493523,0.455658 1.16452,0.706085 1.891814,0.706085c1.416967,0 2.924308,-1.004729 2.924308,-2.866505l0,-1.443217l-0.003535,0l0,-0.000252zm-0.571534,1.443217c0,1.503815 -1.182447,2.291184 -2.349492,2.291184c-0.581381,0 -1.114797,-0.196655 -1.500785,-0.553102c-0.438236,-0.406692 -0.671494,-1.007253 -0.671494,-1.738082l0,-1.383891c0,-0.746988 0.233257,-1.360931 0.673514,-1.776957c0.386493,-0.363011 0.918647,-0.563454 1.499017,-0.563454c1.167045,0 2.349492,0.803781 2.349492,2.340411l0,1.383891l-0.000252,0z" fill="#929292"></path>
   <path stroke="null" id="svg_34" d="m200.028235,57.900291c0.315047,0 0.850483,-0.071446 1.282407,-0.493531c0.392048,-0.379171 0.589208,-0.935807 0.589208,-1.654769l0,-5.027674l-0.574816,0l0,5.027674c0,0.557647 -0.140106,0.975692 -0.414258,1.243036c-0.309753,0.299898 -0.711387,0.335751 -0.922939,0.329439l-0.870674,0l0,0.575321l0.911063,0.000505l0.000009,0z" fill="#929292"></path>
   <path stroke="null" id="svg_35" d="m65.063632,50.725326l-1.977391,0l0,-0.00101l-0.574816,0l0,7.166632l0.574816,0l0,-3.29667l1.977391,0c0.625053,0 1.148117,-0.200695 1.513653,-0.580371c0.324145,-0.337762 0.502874,-0.799236 0.502874,-1.296799c0,-0.964339 -0.706842,-1.991783 -2.016527,-1.991783zm1.09889,2.88922c-0.254214,0.26582 -0.634395,0.405674 -1.099142,0.405674l-1.977391,0l0,-2.720078l1.977391,0c0.946664,0 1.441963,0.712902 1.441963,1.416967c0.000252,0.349124 -0.12143,0.66721 -0.342821,0.897438z" fill="#929292"></path>
   <path stroke="null" id="svg_36" d="m97.383521,51.298122l1.839557,0l0,-0.573048l-1.839557,0c-2.008943,0 -3.09244,1.899136 -3.09244,3.686689c0,0.90678 0.265071,1.745396 0.745978,2.362621c0.559667,0.715932 1.37077,1.094093 2.346462,1.094093l1.839557,0l0,-0.573048l-1.839557,0c-0.791662,0 -1.445995,-0.301665 -1.892571,-0.873199c-0.402896,-0.516761 -0.625305,-1.230159 -0.625305,-2.01072c0.000252,-1.546973 0.864623,-3.113388 2.517877,-3.113388z" fill="#929292"></path>
   <path stroke="null" id="svg_37" d="m155.49889,51.300142l1.839052,0l0,-0.574816l-1.839052,0c-2.010215,0 -3.093955,1.906711 -3.093955,3.700324c0,0.909801 0.265829,1.752718 0.747493,2.371963c0.559162,0.717952 1.370265,1.096618 2.346462,1.096618l1.839052,0l0,-0.574311l-1.839052,0c-0.791914,0 -1.446508,-0.302684 -1.893834,-0.876742c-0.402905,-0.517762 -0.6248,-1.234199 -0.6248,-2.017528c0.000252,-1.553538 0.864875,-3.125508 2.518634,-3.125508z" fill="#929292"></path>
   <path stroke="null" id="svg_38" d="m164.50205,57.869487l0.828778,-2.167481l2.701402,0l0.876733,2.167481l0.620255,0l-2.900077,-7.174451l-2.741792,7.174451l0.614701,0zm2.141483,-5.602995l1.157198,2.860698l-2.250281,0l1.093083,-2.860698z" fill="#929292"></path>
   <path stroke="null" id="svg_39" d="m140.367652,57.869487l0,-3.275461l1.875158,0l1.815823,3.275461l0.657624,0l-1.846131,-3.329233c0.393563,-0.081789 0.731586,-0.25976 0.989083,-0.527104c0.324389,-0.337266 0.502865,-0.798731 0.502865,-1.296294c0,-0.964339 -0.70659,-1.992035 -2.017023,-1.992035l-2.551963,-0.00101l0,7.145423l0.574563,0l0,0.000252zm0,-6.569345l1.977652,0c0.946664,0 1.442207,0.712902 1.442207,1.416967c0,0.349124 -0.121169,0.66721 -0.343073,0.897438c-0.253448,0.26582 -0.634134,0.405674 -1.099134,0.405674l-1.977652,0l0,-2.720078z" fill="#929292"></path>
   <polygon stroke="null" id="svg_40" points="177.13256278561312,50.7336559184555 175.69793039748583,57.03642237109034 173.55267399855438,53.03720602541034 171.41876123728252,57.03642237109034 169.99521915495643,50.7336559184555 169.4045055571296,50.7336559184555 171.0178776453522,57.86949011345587 171.62625410330656,57.86949011345587 173.55468657942947,54.25651688938933 175.49270344419529,57.86949011345587 176.09780066198255,57.86949011345587 177.72227712999847,50.7336559184555 " fill="#929292"></polygon>
   <rect stroke="null" id="svg_41" height="7.144416" width="0.57532" fill="#929292" y="50.74653" x="191.27499"></rect>
   <polygon stroke="null" id="svg_42" points="189.90572397418873,50.746526584261574 189.04591564676957,50.746526584261574 185.46246613970106,53.96846801089123 185.46246613970106,50.746526584261574 184.88588282997625,50.746526584261574 184.88588282997625,57.89069961960104 185.46246613970106,57.89069961960104 185.46246613970106,54.542021893809306 189.1628001514382,57.86949011345587 190.02412847000778,57.86949011345587 186.00116226260252,54.25549300646162 " fill="#929292"></polygon>
   <path stroke="null" id="svg_43" d="m73.733313,53.570117c-0.0313,-1.853949 -1.518955,-2.856153 -2.921025,-2.856153c-0.727041,0 -1.399301,0.257497 -1.892824,0.721234c-0.537961,0.506905 -0.828525,1.231674 -0.849473,2.097559l-0.003787,0l0,1.509361l0.00101,0c0.00606,0.880521 0.300655,1.618167 0.853765,2.131889c0.49327,0.455658 1.164773,0.706085 1.891309,0.706085c1.417472,0 2.924308,-1.004729 2.924308,-2.866505l0,-1.443217l-0.003282,0l0,-0.000252zm-0.571281,1.443217c0,1.503815 -1.182194,2.291184 -2.349997,2.291184c-0.581381,0 -1.114544,-0.196655 -1.500271,-0.553102c-0.438497,-0.406692 -0.670997,-1.007253 -0.670997,-1.738082l0,-1.383891c0,-0.746988 0.233005,-1.360931 0.67327,-1.776957c0.385483,-0.363011 0.917628,-0.563454 1.498251,-0.563454c1.167802,0 2.349997,0.803781 2.349997,2.340411l0,1.383891l-0.000252,0z" fill="#929292"></path>
   <polygon stroke="null" id="svg_44" points="163.0881119616115,57.879838016172016 163.0881119616115,57.305527656176764 159.3976297443678,57.305527656176764 159.3976297443678,54.97673936282854 160.45510729130183,54.13861905728709 160.45510729130183,53.405019254325 159.3976297443678,54.24313252287038 159.3976297443678,50.72431782467493 158.8225664257934,50.72431782467493 158.8225664257934,54.69778228324867 158.2512749371108,55.15091908947261 158.2512749371108,55.8845188924347 158.8225664257934,55.43087894099199 158.83291081001153,57.879838016172016 " fill="#929292"></polygon>
   <path stroke="null" id="svg_45" d="m75.123019,7.776536l-3.150504,0c-0.89062,0 -1.604027,-0.252447 -2.063473,-0.730829c-0.390785,-0.406684 -0.605611,-0.978722 -0.605611,-1.611097c0,-1.257672 0.835334,-2.611777 2.669084,-2.611777l13.057666,0l1.32735,-2.752902l-14.384764,0c-3.521587,0 -5.422238,2.764003 -5.422238,5.364679c0,1.346287 0.487724,2.595383 1.373042,3.517808c0.690935,0.719719 1.953918,1.57702 4.049196,1.57702l3.150504,0c1.834002,0 2.669092,1.354105 2.669092,2.612291c0,0.63187 -0.215339,1.204152 -0.60562,1.610592c-0.459193,0.478635 -1.1726,0.731073 -2.063473,0.731073l-11.284749,0l-1.327098,2.753154l12.611594,0c2.095286,0 3.358513,-0.8573 4.049204,-1.577011c0.885571,-0.921929 1.373042,-2.17153 1.373042,-3.51806c0,-2.600676 -1.900146,-5.36494 -5.422246,-5.36494z" fill="#929292"></path>
   <polygon stroke="null" id="svg_46" points="102.73079744369898,18.207518345348717 102.73079744369898,7.687424733569628 99.97814272926644,4.080253512760123 99.97814272926644,18.207518345348717 " fill="#929292"></polygon>
   <polygon stroke="null" id="svg_47" points="115.89421636014413,18.207518345348717 118.64762403315581,18.207518345348717 118.64762403315581,0.015145909087819875 115.85836990218013,0.015145909087819875 109.41222113618733,8.692401891723193 103.03447900895935,0.015145909087819875 99.6174051998969,0.015145909087819875 109.39934343338518,13.325507324597538 115.89421636014413,4.583373222421642 " fill="#929292"></polygon>
   <path stroke="null" id="svg_48" d="m139.393727,7.784868l0,10.422651l2.752649,0l0,-7.678082l4.306945,0l4.008048,7.678082l3.105822,0l-4.090351,-7.8346c1.244046,-0.279959 2.07029,-0.887843 2.582497,-1.420502c0.885074,-0.921668 1.373051,-2.171269 1.373051,-3.517799c0,-2.600685 -1.901156,-5.364687 -5.423004,-5.364687l-9.618113,0l1.559598,2.752902l8.058515,0c1.834255,0 2.669345,1.353853 2.669345,2.611786c0,0.632366 -0.215592,1.204405 -0.604862,1.611097c-0.45995,0.478373 -1.173862,0.73082 -2.064483,0.73082l-8.615657,0.008332z" fill="#929292"></path>
   <polygon stroke="null" id="svg_49" points="177.07046833232016,0.020450221828840487 168.57471705493117,18.207518345348717 171.61288381077975,18.207518345348717 177.12828429200454,6.4045047028943145 179.1867182334645,10.617790867047233 177.10707478585937,10.617790867047233 175.77972843976568,13.37044118335723 180.53375409455293,13.37044118335723 182.8988884725859,18.207518345348717 185.913073145839,18.207518345348717 185.95398624097106,18.187575498495562 " fill="#929292"></polygon>
   <g stroke="null" id="svg_50">
    <path stroke="null" id="svg_51" d="m182.355639,0.069931l1.560608,2.752902l3.391336,0l0,15.384434l2.752649,0l0,-15.384434l3.921209,0c3.417334,0 5.205645,3.313578 5.205645,6.586514c0,1.669405 -0.468282,3.186845 -1.318008,4.272362c-0.920919,1.178407 -2.230595,1.775686 -3.887637,1.775686l0,0.007575l-2.206356,0l1.559598,2.753154l0.647011,0l0,-0.007827c2.512069,0 4.606598,-0.979732 6.056128,-2.832924c1.226624,-1.567172 1.902166,-3.68695 1.902166,-5.968279c0,-4.527839 -2.789757,-9.339416 -7.958294,-9.339416l-11.626055,0l0,0.000252z" fill="#929292"></path>
   </g>
   <polygon stroke="null" id="svg_52" points="189.8057704820567,34.05115489796435 194.46740037848758,25.639467575588696 191.3199209257382,25.639467575588696 186.98496246071772,33.462200549154204 182.98725906919208,33.462200549154204 182.98725906919208,25.530163674932965 181.6465142825873,25.530163674932965 180.2346113917556,28.459269306490114 180.2346113917556,43.73262945710576 182.98725906919208,43.73262945710576 182.98725906919208,36.214348599869936 187.52088600716888,36.214348599869936 192.08912089180194,43.73262945710576 195.31003843550388,43.73262945710576 189.8057704820567,34.674439232086115 " fill="#929292"></polygon>
   <polygon stroke="null" id="svg_53" points="121.4053242737682,50.725327633610505 120.54624779393998,50.725327633610505 116.93909064712261,53.96846801089123 116.93909064712261,50.725327633610505 116.36376695969375,50.725327633610505 116.36376695969375,57.86949011345587 116.93909064712261,57.86949011345587 116.93909064712261,54.542021893809306 116.98200224913762,54.58090129707807 117.04207708455942,54.64754516832818 117.04916333959864,54.64098316949594 120.64041687530516,57.86949011345587 121.50074594043326,57.86949011345587 117.47906750330822,54.25549300646162 " fill="#929292"></polygon>
   <polygon stroke="null" id="svg_54" points="137.81417762821184,50.725327633610505 136.37777191707573,57.03490941693599 134.23300810786895,53.03720602541034 132.09860275687242,57.036929034807144 130.6730340196791,50.725327633610505 130.08333374928588,50.725327633610505 131.6977191649421,57.86949011345587 132.30408304202138,57.86949011345587 134.23402143530257,54.25651688938933 136.17227755793465,57.86949011345587 136.77613626441416,57.86949011345587 138.4036386407388,50.725327633610505 " fill="#929292"></polygon>
   <polygon stroke="null" id="svg_55" points="107.02688354244674,50.72431782467493 107.02688354244674,57.89069961960104 107.6017005661588,57.89069961960104 107.6017005661588,51.71667501000729 111.8508217531571,57.89069961960104 112.48395436327428,57.89069961960104 112.48395436327428,56.06905707728902 112.48395436327428,50.72431782467493 111.90839141797915,50.72431782467493 111.90839141797915,56.96043688756163 107.61583085426082,50.72431782467493 " fill="#929292"></polygon>
  </g>
 </g>
</svg>